<svg width="26" height="20" viewBox="0 0 26 20" fill="none" xmlns="http://www.w3.org/2000/svg">
<path d="M24.7826 0H0.434783C0.194783 0 0 0.194348 0 0.434783V19.5652C0 19.8057 0.194783 20 0.434783 20H24.7826C25.0226 20 25.2174 19.8057 25.2174 19.5652V0.434783C25.2174 0.194348 25.0226 0 24.7826 0ZM24.3478 19.1304H0.869565V0.869565H24.3478V19.1304Z" fill="#BDBDBD"/>
<path d="M3.04353 17.3913C3.14527 17.3913 3.24788 17.3556 3.33049 17.283L10.4231 11.0387L14.9022 15.5174C15.0722 15.6874 15.347 15.6874 15.517 15.5174C15.687 15.3474 15.687 15.0726 15.517 14.9026L13.427 12.8126L17.4188 8.44129L22.3148 12.9296C22.4918 13.0917 22.767 13.0796 22.9292 12.9026C23.0914 12.7256 23.0796 12.4504 22.9022 12.2882L17.6848 7.50564C17.5996 7.42781 17.4861 7.38912 17.3718 7.39173C17.2566 7.39694 17.1479 7.44781 17.0701 7.53303L12.8118 12.1969L10.7496 10.1348C10.587 9.97259 10.327 9.96433 10.1548 10.1156L2.75614 16.63C2.57571 16.7887 2.55832 17.0635 2.71701 17.2439C2.8031 17.3417 2.9231 17.3913 3.04353 17.3913Z" fill="#BDBDBD"/>
</svg>
