<svg width="64" height="24" viewBox="0 0 64 24" fill="none" xmlns="http://www.w3.org/2000/svg">
<path d="M7.9627 9.25319C8.78396 11.717 14.4643 10.9642 17.2019 10.2798C20.2816 9.25319 20.2816 7.20004 19.255 5.1469C18.2285 3.09375 14.1221 4.12032 12.069 4.12032C10.0158 4.12032 6.93612 6.17347 7.9627 9.25319Z" fill="#698056"/>
<path d="M25.3597 5.04859C25.1636 7.63823 30.6928 9.14204 33.4819 9.57024C36.7189 9.81531 37.5134 7.9221 37.3613 5.63166C37.2091 3.34122 33.0254 2.69892 31.1322 1.90446C29.239 1.11001 25.6047 1.81154 25.3597 5.04859Z" fill="#698056"/>
<path d="M42.6841 9.16887C42.488 11.7585 48.0172 13.2623 50.8063 13.6905C54.0433 13.9356 53.2842 14.6234 53.1321 12.3329C52.9799 10.0425 50.3498 6.8192 48.4566 6.02474C46.5634 5.23029 42.9291 5.93182 42.6841 9.16887Z" fill="#698056"/>
<path d="M38.2823 5.98302C38.1607 7.58839 41.5884 8.52063 43.3174 8.78609C45.3241 8.93801 44.8535 9.36438 44.7592 7.94449C44.6649 6.5246 43.0345 4.52641 41.8608 4.03391C40.6872 3.54141 38.4342 3.97631 38.2823 5.98302Z" fill="#698056"/>
<path d="M32.5356 16.7504C32.3822 18.7768 36.7088 19.9535 38.8912 20.2886C41.4242 20.4803 45.6499 20.4005 45.5309 18.6082C45.4118 16.8159 38.5341 14.9118 37.0526 14.2901C35.5712 13.6685 32.7274 14.2174 32.5356 16.7504Z" fill="#698056"/>
<path d="M16.1965 21.0463C16.9954 22.4352 20.3376 21.2829 21.9089 20.5331C23.645 19.5344 26.364 17.6077 25.4913 16.4922C24.6186 15.3768 19.2908 17.1868 18.0493 17.4388C16.8079 17.6908 15.1978 19.3102 16.1965 21.0463Z" fill="#698056"/>
<path d="M15.7438 13.5933C16.7359 15.3181 20.8864 13.887 22.8377 12.9559C24.9937 11.7157 28.3703 9.32298 27.2865 7.93779C26.2028 6.5526 19.5864 8.80031 18.0447 9.11324C16.5031 9.42617 14.5035 11.4372 15.7438 13.5933Z" fill="#698056"/>
<path d="M1.32354 11.5508C1.06844 13.5242 5.23787 14.8991 7.35447 15.3399C9.82122 15.6588 13.9572 15.7998 13.9337 14.0412C13.9103 12.2826 7.28407 10.0641 5.86779 9.3794C4.4515 8.69473 1.64241 9.084 1.32354 11.5508Z" fill="#698056"/>
<path d="M22.4651 14.8329C22.21 16.8063 26.3795 18.1812 28.4961 18.622C30.9628 18.9409 35.0988 19.0819 35.0753 17.3233C35.0519 15.5647 28.4257 13.3462 27.0094 12.6615C25.5931 11.9768 22.784 12.3661 22.4651 14.8329Z" fill="#698056"/>
<path d="M52.0434 15.5142C53.024 16.9763 56.6006 15.4609 58.2663 14.5204C60.094 13.2947 62.929 10.9775 61.8882 9.82067C60.8474 8.66386 55.1439 11.05 53.8021 11.4199C52.4603 11.7898 50.8176 13.6865 52.0434 15.5142Z" fill="#698056"/>
<path d="M34.8754 6.51625C35.856 7.9784 39.4326 6.46298 41.0983 5.5225C42.926 4.29674 45.761 1.97955 44.7202 0.822743C43.6794 -0.334065 37.9759 2.05208 36.6341 2.42199C35.2924 2.79191 33.6496 4.68856 34.8754 6.51625Z" fill="#698056"/>
<path d="M38.8375 13.6778C39.6655 15.182 42.1868 13.9575 43.344 13.1573C44.5995 12.0892 46.5168 10.0251 45.6667 8.81568C44.8166 7.60629 40.7937 9.52909 39.8334 9.79385C38.873 10.0586 37.8025 11.7975 38.8375 13.6778Z" fill="#698056"/>
<path d="M34.2641 9.3019C33.8619 10.4779 35.7455 11.2316 36.7375 11.4614C37.9209 11.6136 39.9599 11.6349 40.1935 10.5907C40.4271 9.54655 37.4383 8.32889 36.8288 7.94361C36.2193 7.55832 34.7668 7.83194 34.2641 9.3019Z" fill="#698056"/>
<path d="M21.2641 5.3019C20.8619 6.47787 22.7455 7.23158 23.7375 7.46145C24.9209 7.61359 26.9599 7.63492 27.1935 6.59073C27.4271 5.54655 24.4383 4.32889 23.8288 3.94361C23.2193 3.55832 21.7668 3.83194 21.2641 5.3019Z" fill="#698056"/>
<path d="M13.2641 16.3019C12.8619 17.4779 14.7455 18.2316 15.7375 18.4614C16.9209 18.6136 18.9599 18.6349 19.1935 17.5907C19.4271 16.5465 16.4383 15.3289 15.8288 14.9436C15.2193 14.5583 13.7668 14.8319 13.2641 16.3019Z" fill="#698056"/>
<path d="M28.8375 13.6778C29.6655 15.182 32.1868 13.9575 33.344 13.1573C34.5995 12.0892 36.5168 10.0251 35.6667 8.81568C34.8166 7.60629 30.7937 9.52909 29.8334 9.79385C28.873 10.0586 27.8025 11.7975 28.8375 13.6778Z" fill="#698056"/>
<path d="M42.8375 19.6778C43.6655 21.182 46.1868 19.9575 47.344 19.1573C48.5995 18.0892 50.5168 16.0251 49.6667 14.8157C48.8166 13.6063 44.7937 15.5291 43.8334 15.7938C42.873 16.0586 41.8025 17.7975 42.8375 19.6778Z" fill="#698056"/>
<path d="M25.6063 23.1729C26.2149 24.2785 28.068 23.3785 28.9185 22.7904C29.8413 22.0054 31.2504 20.4883 30.6256 19.5994C30.0008 18.7105 27.0441 20.1238 26.3383 20.3183C25.6324 20.5129 24.8456 21.791 25.6063 23.1729Z" fill="#698056"/>
</svg>
