<svg width="12" height="12" viewBox="0 0 12 12" fill="none" xmlns="http://www.w3.org/2000/svg">
<path fill-rule="evenodd" clip-rule="evenodd" d="M10.8907 3.88413L10.4878 3.1864L10.4743 3.19418C8.94421 0.955275 5.92267 0.240225 3.5353 1.61857C1.03055 3.06469 0.172366 6.26749 1.61848 8.77224C3.0646 11.277 6.2674 12.1352 8.77214 10.6891C11.1595 9.31072 12.051 6.33649 10.8772 3.89191L10.8907 3.88413ZM9.77452 3.59822C8.46901 1.7441 5.94029 1.16043 3.93851 2.31616C1.93672 3.4719 1.17783 5.95367 2.13079 8.01133L9.77452 3.59822ZM2.53362 8.70906L10.1774 4.29595C11.1304 6.35363 10.3715 8.83544 8.36968 9.99119C6.36787 11.1469 3.83911 10.5632 2.53362 8.70906Z" fill="#C4C4C4"/>
</svg>
