<svg width="48" height="48" viewBox="0 0 48 48" fill="none" xmlns="http://www.w3.org/2000/svg">
<circle cx="24" cy="24" r="22.5" fill="white" stroke="#01AA4F" stroke-width="3"/>
<path fill-rule="evenodd" clip-rule="evenodd" d="M24.12 24.9804C27.0582 24.9804 29.44 22.5224 29.44 19.4902C29.44 16.458 27.0582 14 24.12 14C21.1818 14 18.8 16.458 18.8 19.4902C18.8 22.5224 21.1818 24.9804 24.12 24.9804ZM24.12 23.4118C26.2187 23.4118 27.92 21.656 27.92 19.4902C27.92 17.3244 26.2187 15.5686 24.12 15.5686C22.0213 15.5686 20.32 17.3244 20.32 19.4902C20.32 21.656 22.0213 23.4118 24.12 23.4118Z" fill="#01AA4F"/>
<path d="M31.2175 27.0676C32.9991 28.9062 34 31.3998 34 34H32.48C32.48 29.4518 28.9072 25.7647 24.5 25.7647C20.0928 25.7647 16.52 29.4518 16.52 34L15 34C15 31.3998 16.0009 28.9062 17.7825 27.0676C19.5641 25.229 21.9804 24.1961 24.5 24.1961C27.0196 24.1961 29.4359 25.229 31.2175 27.0676Z" fill="#01AA4F"/>
<circle cx="41.5" cy="6.5" r="4.5" fill="#EEA46B"/>
</svg>
